<?xml version="1.0" encoding="iso-8859-1"?>
<!-- Generator: Adobe Illustrator 19.0.0, SVG Export Plug-In . SVG Version: 6.00 Build 0)  -->
<svg version="1.1" id="Capa_1" xmlns="http://www.w3.org/2000/svg" xmlns:xlink="http://www.w3.org/1999/xlink" x="0px" y="0px"
	 viewBox="0 0 384.008 384.008" style="enable-background:new 0 0 384.008 384.008;" xml:space="preserve">
<g>
	<path style="fill:#F9E7CD;" d="M368,40.088v194.88c-147.44,0-176,41.52-176,41.52V81.528C192,81.528,220.56,40.088,368,40.088z"/>
	<path style="fill:#F9E7CD;" d="M192,81.528v194.96c0,0-28.64-41.52-176-41.52V40.088C163.36,40.088,192,81.528,192,81.528z"/>
</g>
<path style="fill:#FFC772;" d="M368,234.968v50.8c-147.44,0-176,58.32-176,58.32s-28.64-58.32-176-58.32v-50.8
	c147.36,0,176,41.52,176,41.52S220.56,234.968,368,234.968z"/>
<g>
	<path style="fill:#4A5370;" d="M16,301.768c132.928,0,161.528,49.192,161.64,49.376c2.632,5.36,8.12,8.64,14.088,8.776
		c0.12,0,0.232,0,0.344,0c5.84,0,11.32-3.336,14.136-8.472c0.272-0.496,28.808-49.68,161.8-49.68c8.832,0,16-7.168,16-16v-50.8
		V40.088c0-8.832-7.168-16-16-16c-107.072,0-155.56,21.68-176.008,36.152c-20.456-14.464-68.952-36.152-176-36.152
		c-8.832,0-16,7.168-16,16v194.88v50.8C0,294.6,7.168,301.768,16,301.768z M191.992,318.84C171.912,299.784,126.904,272.744,32,270
		v-18.832c1.496,0.032,2.992,0.072,4.464,0.112c1.56,0.048,3.136,0.088,4.672,0.144c2.152,0.08,4.24,0.176,6.328,0.272
		c1.472,0.064,2.96,0.128,4.4,0.208c2.056,0.112,4.056,0.24,6.048,0.368c1.384,0.088,2.784,0.168,4.136,0.264
		c1.976,0.144,3.88,0.304,5.792,0.456c1.288,0.104,2.608,0.208,3.864,0.32c1.888,0.168,3.712,0.36,5.544,0.544
		c1.2,0.12,2.432,0.24,3.6,0.368c1.888,0.208,3.696,0.432,5.52,0.656c1.024,0.128,2.088,0.24,3.096,0.376
		c2.088,0.272,4.104,0.56,6.104,0.856c0.664,0.096,1.36,0.184,2.016,0.288c5.28,0.8,10.232,1.664,14.888,2.576
		c0.712,0.136,1.376,0.288,2.072,0.432c1.568,0.32,3.144,0.64,4.648,0.968c0.888,0.192,1.72,0.4,2.584,0.592
		c1.248,0.288,2.504,0.568,3.696,0.864c0.92,0.224,1.784,0.456,2.68,0.68c1.072,0.272,2.152,0.544,3.184,0.824
		c0.88,0.24,1.72,0.48,2.576,0.72c0.976,0.272,1.96,0.552,2.896,0.832c0.824,0.248,1.608,0.488,2.4,0.736
		c0.896,0.28,1.8,0.56,2.664,0.84c0.768,0.248,1.496,0.496,2.232,0.752c0.824,0.28,1.656,0.56,2.448,0.84
		c0.704,0.248,1.376,0.496,2.056,0.752c0.76,0.28,1.52,0.56,2.248,0.84c0.648,0.248,1.272,0.496,1.888,0.744
		c0.696,0.28,1.384,0.552,2.04,0.832c0.6,0.248,1.176,0.496,1.744,0.744c0.624,0.272,1.248,0.544,1.84,0.816
		c0.536,0.24,1.056,0.48,1.568,0.72c0.576,0.272,1.144,0.536,1.688,0.808c0.488,0.24,0.96,0.472,1.424,0.704
		c0.504,0.256,1,0.512,1.48,0.76c0.448,0.232,0.88,0.464,1.296,0.696c0.448,0.248,0.888,0.488,1.304,0.728
		c0.392,0.224,0.784,0.448,1.16,0.664c0.4,0.232,0.784,0.464,1.16,0.688c0.344,0.208,0.688,0.416,1.016,0.624
		c0.344,0.216,0.672,0.432,1,0.64c0.304,0.2,0.616,0.4,0.896,0.592c0.296,0.2,0.576,0.392,0.856,0.584
		c0.256,0.176,0.512,0.36,0.752,0.528c0.272,0.192,0.52,0.376,0.768,0.56c0.2,0.152,0.408,0.304,0.592,0.448
		c0.232,0.176,0.432,0.336,0.64,0.504c0.16,0.128,0.336,0.264,0.488,0.392c0.184,0.152,0.344,0.288,0.504,0.424
		c0.128,0.112,0.272,0.232,0.392,0.336c0.128,0.112,0.232,0.208,0.344,0.312s0.232,0.208,0.328,0.296
		c0.104,0.096,0.176,0.168,0.256,0.248c0.064,0.064,0.144,0.144,0.2,0.192c0.08,0.08,0.136,0.136,0.192,0.192
		c0.008,0.008,0.024,0.024,0.032,0.04c1.352,2.12,3.208,3.8,5.408,5.08c0.392,0.24,0.808,0.416,1.216,0.624
		c0.6,0.28,1.112,0.696,1.752,0.896c0.216,0.064,0.44,0.04,0.656,0.104c1.168,0.344,2.384,0.52,3.624,0.56
		c0.216,0.008,0.44,0.104,0.656,0.104c5.04,0,9.808-2.36,12.808-6.712c0.024-0.032,0.264-0.312,0.736-0.768
		c0.04-0.04,0.072-0.072,0.12-0.12c0.128-0.12,0.288-0.272,0.448-0.416c0.08-0.072,0.144-0.136,0.232-0.208
		c0.168-0.152,0.368-0.32,0.56-0.488c0.112-0.096,0.208-0.184,0.328-0.288c0.208-0.176,0.456-0.368,0.696-0.568
		c0.144-0.112,0.272-0.224,0.424-0.344c0.248-0.192,0.52-0.4,0.8-0.608c0.192-0.144,0.376-0.288,0.576-0.432
		c0.28-0.208,0.592-0.424,0.904-0.648c0.232-0.16,0.456-0.32,0.704-0.496c0.336-0.232,0.696-0.472,1.064-0.712
		c0.264-0.176,0.528-0.352,0.816-0.528c0.376-0.24,0.784-0.488,1.192-0.736c0.328-0.2,0.656-0.4,1-0.608
		c0.416-0.248,0.848-0.496,1.288-0.744c0.384-0.216,0.768-0.432,1.168-0.656c0.472-0.256,0.96-0.52,1.456-0.784
		c0.416-0.224,0.848-0.448,1.288-0.672c0.528-0.272,1.08-0.544,1.64-0.824c0.472-0.232,0.968-0.464,1.464-0.704
		c0.576-0.272,1.16-0.544,1.76-0.824c0.544-0.248,1.112-0.496,1.68-0.744c0.624-0.272,1.256-0.544,1.904-0.824
		c0.592-0.248,1.216-0.504,1.84-0.752c0.688-0.28,1.384-0.56,2.104-0.84c0.656-0.256,1.344-0.512,2.032-0.768
		c0.744-0.28,1.488-0.552,2.256-0.832c0.736-0.264,1.504-0.52,2.272-0.784c0.792-0.272,1.568-0.544,2.392-0.808
		c0.816-0.264,1.672-0.536,2.52-0.8c0.84-0.264,1.672-0.528,2.544-0.784c0.896-0.264,1.832-0.528,2.76-0.792
		c0.896-0.256,1.776-0.512,2.712-0.768c0.968-0.264,1.984-0.52,2.984-0.776c0.96-0.248,1.904-0.496,2.896-0.744
		c1.088-0.264,2.232-0.528,3.36-0.792c0.968-0.224,1.92-0.456,2.92-0.68c1.28-0.28,2.632-0.552,3.96-0.832
		c0.928-0.192,1.824-0.392,2.784-0.576c1.912-0.376,3.896-0.736,5.904-1.096c0.432-0.08,0.832-0.16,1.264-0.232
		c2.472-0.432,5.032-0.848,7.664-1.248c0.736-0.112,1.528-0.216,2.28-0.32c1.928-0.28,3.856-0.56,5.872-0.824
		c0.984-0.128,2.032-0.248,3.04-0.368c1.848-0.232,3.696-0.456,5.616-0.672c1.12-0.12,2.296-0.232,3.44-0.352
		c1.888-0.192,3.768-0.392,5.72-0.568c1.248-0.112,2.552-0.208,3.824-0.32c1.92-0.16,3.832-0.32,5.816-0.464
		c1.36-0.096,2.776-0.184,4.168-0.272c2-0.128,4-0.256,6.064-0.368c1.448-0.08,2.936-0.144,4.416-0.208
		c2.08-0.096,4.152-0.192,6.296-0.272c1.568-0.056,3.176-0.096,4.768-0.144c1.464-0.04,2.944-0.08,4.44-0.112v18.832
		C257.048,272.744,212.064,299.776,191.992,318.84z M352,219.136c-0.664,0.016-1.288,0.048-1.952,0.064
		c-1.568,0.04-3.08,0.096-4.624,0.144c-4.136,0.128-8.184,0.288-12.12,0.48c-1.64,0.08-3.272,0.16-4.872,0.256
		c-4.424,0.256-8.72,0.544-12.896,0.872c-0.712,0.056-1.456,0.104-2.16,0.16c-4.848,0.408-9.504,0.872-14.024,1.368
		c-1.184,0.128-2.328,0.28-3.488,0.416c-3.392,0.4-6.696,0.832-9.904,1.28c-1.216,0.168-2.424,0.344-3.616,0.52
		c-3.656,0.552-7.208,1.128-10.624,1.736c-0.416,0.072-0.856,0.136-1.264,0.216c-3.832,0.696-7.48,1.432-11.008,2.192
		c-0.896,0.192-1.744,0.392-2.616,0.584c-2.664,0.6-5.24,1.208-7.736,1.84c-0.888,0.224-1.784,0.448-2.656,0.68
		c-2.912,0.768-5.728,1.544-8.408,2.344c-0.2,0.064-0.424,0.12-0.624,0.176c-2.912,0.872-5.656,1.768-8.296,2.672
		c-0.656,0.224-1.28,0.456-1.92,0.68c-1.992,0.704-3.904,1.408-5.744,2.12c-0.632,0.248-1.272,0.488-1.888,0.736
		c-2.168,0.864-4.248,1.736-6.208,2.608c-0.104,0.048-0.224,0.096-0.328,0.144c-1.76,0.784-3.44,1.576-5.032,2.36V87.992
		c9.44-7.648,45.04-29.584,144-31.736v162.88H352z M32,56.256c97.856,2.168,133.976,23.936,144,31.944v157.584
		c-1.584-0.776-3.256-1.56-5-2.344c-0.2-0.088-0.432-0.184-0.632-0.272c-1.856-0.824-3.808-1.64-5.848-2.456
		c-0.696-0.28-1.416-0.552-2.128-0.832c-1.736-0.672-3.552-1.336-5.424-2c-0.728-0.256-1.44-0.52-2.192-0.776
		c-2.584-0.88-5.264-1.76-8.104-2.608c-0.408-0.12-0.848-0.24-1.256-0.36c-2.472-0.728-5.048-1.448-7.712-2.144
		c-1-0.264-2.024-0.52-3.048-0.776c-2.328-0.584-4.736-1.152-7.216-1.712c-1.016-0.232-2.008-0.464-3.048-0.688
		c-3.448-0.744-7.008-1.464-10.744-2.144c-0.64-0.12-1.336-0.224-1.984-0.336c-3.176-0.56-6.448-1.096-9.832-1.608
		c-1.328-0.2-2.688-0.392-4.048-0.584c-3.048-0.432-6.184-0.832-9.4-1.216c-1.288-0.152-2.552-0.312-3.864-0.464
		c-4.448-0.496-9.032-0.952-13.8-1.352c-0.872-0.072-1.792-0.128-2.672-0.2c-4.024-0.32-8.168-0.6-12.416-0.84
		c-1.64-0.096-3.312-0.176-4.984-0.256c-3.936-0.192-7.976-0.352-12.112-0.48c-1.52-0.048-3.008-0.104-4.56-0.144
		c-0.672-0.016-1.296-0.048-1.968-0.064V56.256H32z"/>
	<path style="fill:#4A5370;" d="M293.64,104.456c5.096-1.488,9.776-2.416,13.808-2.984v15.968c0,8.832,7.168,16,16,16
		s16-7.168,16-16V84.744c0-8.24-6.256-15.128-14.456-15.928c-1.816-0.168-18.248-1.52-40.32,4.92
		c-8.488,2.48-13.352,11.36-10.872,19.84C276.272,102.064,285.152,106.936,293.64,104.456z"/>
</g>
<g>
</g>
<g>
</g>
<g>
</g>
<g>
</g>
<g>
</g>
<g>
</g>
<g>
</g>
<g>
</g>
<g>
</g>
<g>
</g>
<g>
</g>
<g>
</g>
<g>
</g>
<g>
</g>
<g>
</g>
</svg>
